PathFileType	4	(X/Y/Z)	41_2_55_p1_0-299.trc
DataRate	CameraRate	NumFrames	NumMarkers	Units	OrigDataRate	OrigDataStartFrame	OrigNumFrames
59.0	59.0	6	27	m	59.0	0	300
Frame#	Time	RHip			RKnee			RAnkle			RBigToe			RSmallToe			RHeel			LHip			LKnee			LAnkle			LBigToe			LSmallToe			LHeel			Neck			Head			Nose			RShoulder			RElbow			RWrist			RThumb			RIndex			RPinky			LShoulder			LElbow			LWrist			LThumb			LIndex			LPinky			
		X1	Y1	Z1	X2	Y2	Z2	X3	Y3	Z3	X4	Y4	Z4	X5	Y5	Z5	X6	Y6	Z6	X7	Y7	Z7	X8	Y8	Z8	X9	Y9	Z9	X10	Y10	Z10	X11	Y11	Z11	X12	Y12	Z12	X13	Y13	Z13	X14	Y14	Z14	X15	Y15	Z15	X16	Y16	Z16	X17	Y17	Z17	X18	Y18	Z18	X19	Y19	Z19	X20	Y20	Z20	X21	Y21	Z21	X22	Y22	Z22	X23	Y23	Z23	X24	Y24	Z24	X25	Y25	Z25	X26	Y26	Z26	X27	Y27	Z27	
0	0.0	0.3230032135052104	0.5260666729581029	-0.13941795327352566	0.3416699733395343	0.5621574996562209	0.30419202832533065	0.37684740123526156	0.6747513282733968	0.7268874857795063	0.34578309067823426	0.5228989204953916	0.7464780126594359	0.4044504332891699	0.5484584292418503	0.7528105551775576	0.37177410038881037	0.7784792853759125	0.8225864973816225	0.1243301460480697	0.5122113724557505	-0.14274518609982806	0.16209236738867205	0.6349042156419513	0.30750881079933956	0.17199469227850683	0.7085094359538942	0.7323263967759195	0.18086199713335385	0.5106392672332167	0.7225935768665278	0.13333143798581829	0.5656781783004581	0.738999045273949	0.17919313904129247	0.7542294993898783	0.791022040201588	0.21517573949292346	0.47015267814020467	-0.6820800345641052	0.22754533914677277	0.43535410369412925	-0.9355097193768468	0.20744746997521918	0.38598478030286115	-0.7943879159389282	0.367755274261223	0.49837637198320145	-0.5886317897915959	0.4033877208544601	0.498559648327397	-0.3127040842413762	0.3084894138338646	0.34384875087135763	-0.11097001806490672	0.21631282721391606	0.3295494226540425	-0.033573632064706684	0.21726590861614356	0.33356435491902797	-0.01646263758069805	0.22577103743057964	0.3845278248156056	-0.0026055195072488433	0.0802309401350569	0.5036247597383033	-0.581495160689201	0.038238540430461765	0.47225086641991243	-0.3206051188925944	0.1279569828048483	0.365732519825214	-0.10188939577711031	0.2095720461993186	0.33170122287503123	-0.09011889483818927	0.2160117514717313	0.3323163315612923	-0.025508803662623043	0.19579391928143544	0.3554259914170818	-0.0021768576046796505
1	0.01694915254237288	0.3230951525161121	0.5261452349526614	-0.1394725588062813	0.3417031132059358	0.5621269593549949	0.3041069309292007	0.3719458675946772	0.6600766799776585	0.7199410287186773	0.3468643521114384	0.5250128096746252	0.7515449175480383	0.4093300406665176	0.5491014432125826	0.7575804758078857	0.37168854998228423	0.7783076684064428	0.8228464411671224	0.12373169775397269	0.5105171599869877	-0.14677514368285483	0.16203487683149442	0.6349838264436921	0.3075810003691932	0.17308903920707777	0.7104623298993497	0.738229848313643	0.1854828840763293	0.5115610881475835	0.7230221201772552	0.13439796191002937	0.5680735059765571	0.745542749504482	0.1790581357013504	0.7542070910055892	0.7911492905366209	0.22289707083376067	0.48271693720336084	-0.6818915495346467	0.22733955300367784	0.43482794924382717	-0.9385086962098491	0.208020175658169	0.3866111538919387	-0.7878516658970134	0.36777304841126524	0.49841791938608837	-0.5919724659659649	0.4037091090074862	0.49868147540444746	-0.31258667341969437	0.3079793690636472	0.34289916374399765	-0.11495700473288344	0.2158238015673999	0.3298568951138224	-0.03695914426217236	0.21682364698863982	0.33315958263103035	-0.016373429684658755	0.22961131237563523	0.3953952312440926	0.004352970828144505	0.08009383227993547	0.5037557593556259	-0.5815145363821904	0.041227721864902526	0.4858882665283173	-0.31483857889451095	0.12468597566132986	0.35505587405253203	-0.10454690309455848	0.2084501253688391	0.33030461413096485	-0.09398539459047342	0.2157156853126033	0.3318796755894736	-0.025740532616399074	0.1887755770832683	0.3436232945324472	-0.00814185392042558
2	0.03389830508474576	0.3223147808946696	0.525039088815263	-0.14380390536563106	0.34113012033950135	0.5626571426827687	0.30846522077773864	0.3718715310527613	0.6599567193123257	0.7198616174558007	0.34244483508220724	0.5119422370886115	0.7448984169728579	0.4048249132787243	0.5360564069875793	0.750915101901546	0.3716212915726424	0.7781712256164184	0.8226979781708801	0.1236605570638778	0.5106056216177863	-0.14676725918961098	0.15875871898890873	0.6518986143323411	0.3183404083913758	0.17333003052985702	0.7131067062784953	0.7489782454382327	0.18565648408581414	0.5113361741988997	0.7228943330004503	0.1351092573680164	0.5660678894693119	0.748815320132553	0.17903256789329328	0.7538350681535585	0.7911548323669451	0.21510444224848635	0.4700464752131549	-0.6789938795067072	0.22751675360527202	0.43519545686112654	-0.9384302502428952	0.20771247875586843	0.38590439591639286	-0.7911182121563018	0.36778417310956873	0.49850040304931836	-0.5920322547860569	0.4069647562681095	0.497871032292529	-0.3169051243473984	0.31179031501411963	0.35377721530829953	-0.11237493998333281	0.21950416714194596	0.3422549359163535	-0.03391896795968385	0.22049543192839333	0.3449227993514114	-0.013262566155009143	0.23314894790740473	0.40747251823974373	0.007832640715289801	0.08009098038943131	0.5036316059957914	-0.5815565451261765	0.04126959672217462	0.4859636335972589	-0.3148505543593524	0.1279477244308883	0.36597447771984193	-0.1019086024880714	0.20909738563785749	0.33152205346354474	-0.09007555774899406	0.21571700193808996	0.3319742168851995	-0.025660610365371816	0.19600215520233824	0.3547870283165184	-0.005421993330551544
3	0.05084745762711865	0.32158949999972836	0.5236025526547281	-0.14842157916081497	0.34110232662071405	0.56261197948021	0.3085361687431049	0.37192369973751976	0.6599365692815677	0.7198825707014563	0.3418949817458377	0.5111200565959194	0.7446781407759627	0.4009057631421677	0.5352271963705103	0.7550001508566793	0.37168073840615445	0.7783127692799444	0.8224799053937737	0.12362692540232813	0.5104505359926872	-0.14691924553247052	0.15779218938235054	0.6499577171537704	0.313171635107741	0.17218747029908932	0.7113124212876706	0.7433584074006263	0.18560567246551513	0.5111772409614262	0.7228753754820462	0.13414300406058405	0.566976314528106	0.7530622716395093	0.1791022962729755	0.7542336984964142	0.791171303319297	0.21509904882911707	0.46999539866661333	-0.6789876131507769	0.22750317609684487	0.43518532009920236	-0.9384626264354126	0.20810648148131547	0.3867481180847279	-0.7878282733046131	0.36775891153823176	0.4984775800568709	-0.5921113808842098	0.4059333064698006	0.4844994197828339	-0.31915581861405373	0.30785764008178174	0.352751593176893	-0.11247048426203599	0.22036478656324676	0.34111371028383436	-0.03363334767393188	0.22040005454200326	0.3448368460710205	-0.013270896611543707	0.229601114028952	0.39537712187673807	0.004407698921068427	0.080008782413596	0.503581591894864	-0.5815660094479086	0.044141323756860626	0.49800363361996824	-0.31619557180990865	0.12765269987894823	0.36677626048276446	-0.10525728614838033	0.2087501770547381	0.3306754643096167	-0.09403475907721771	0.21629502595107578	0.33197729092716316	-0.028872115768723602	0.19619514324632958	0.3548800614518265	-0.005338939389281182
4	0.06779661016949153	0.32112316348976977	0.5221746855597574	-0.15677882158567152	0.34101967456585836	0.562445509894875	0.30838104020279744	0.37190253860623596	0.6602249188500259	0.7200051015186555	0.34205900619144863	0.5111040544186617	0.7446549626380414	0.4044925597889596	0.546293677457895	0.7562226170717463	0.37165041715860614	0.7785970532171559	0.8227610678621192	0.12292666571599264	0.5085090641300619	-0.15118213968379865	0.1577420197800391	0.6499070169497789	0.3131410574190095	0.1721848287935622	0.7113627173589719	0.7435372896660406	0.18569887850529507	0.5112528069551099	0.7228965115795507	0.13427069122053997	0.5666632608431365	0.7528673661762963	0.17913241967037608	0.754382148681516	0.7913793634644413	0.2193100897422937	0.47045252972239854	-0.6792653088414793	0.22753918322861616	0.4351838568548237	-0.9384330606597118	0.20810628233079786	0.38675828652408617	-0.7878232175797222	0.3678201243254558	0.4985511457418072	-0.5921622110735102	0.4061153828083335	0.4846660488644959	-0.3193529097481075	0.3082264737629258	0.35228148448751634	-0.10888739000961167	0.21953109185698072	0.3404378293699696	-0.03849216502443322	0.22028986032689624	0.34505260622882716	-0.013195406428800089	0.22949360714517916	0.3957325387468991	0.004491952119649997	0.07994155618016671	0.5035723992878323	-0.5815825556018298	0.04390366167503819	0.4981462294348157	-0.31293543353387826	0.12768470753807898	0.3669651659480868	-0.1051827179584089	0.20878802652779918	0.3306668965498537	-0.09417754919519236	0.2165548354879552	0.3322109218164154	-0.028976595541745927	0.19625056343947586	0.35500392481995563	-0.00531995270182943
5	0.0847457627118644	0.3215808290320093	0.523498718673586	-0.14857918486564303	0.34104129350911616	0.5625941178909256	0.3085187399478391	0.3767304316712878	0.6745934164429741	0.7269045839341466	0.3465305412192816	0.5236676132748787	0.7510340713745213	0.4044954342895835	0.5463980919611917	0.756294081582859	0.37169051652638896	0.7785095909902491	0.8227217763630607	0.12283121950129838	0.5082195393619078	-0.15102883292901542	0.15773813877829143	0.6501766887620987	0.3133292132372192	0.1721586851159329	0.711428927118139	0.7438528581708036	0.18575871623325213	0.5111409841791982	0.7227773683334332	0.13440384257182256	0.5664237468727797	0.7527290850338373	0.17912731236563206	0.7543191963052934	0.7914257804669231	0.22287804797583813	0.4827251404158048	-0.6818996025004264	0.2276032950745343	0.43538380273146976	-0.9384563982243748	0.20780979773375005	0.38598049376397386	-0.7911318070455938	0.3677842515164205	0.4986254914769826	-0.5921893088286655	0.410075481595365	0.48436762516607146	-0.31961635416032314	0.30793001404751363	0.35289785913696303	-0.11234422022312276	0.22043661568008227	0.34147725172542465	-0.03348617972142767	0.2204760141240011	0.34542755985669027	-0.013019566565083008	0.22955845275291933	0.3955490572207484	0.004398211513594201	0.07989122351998751	0.5036795985392616	-0.5816399750147354	0.04395408205966456	0.4980698879835839	-0.31291811962684324	0.13139359070651174	0.37729818365867657	-0.09911665017827698	0.20889117623876446	0.33121046809330307	-0.09389118139542359	0.21659324057331958	0.33268397519821863	-0.02874342560712038	0.20020978126951672	0.355266955607904	-0.005434628732338301
